<svg width="24" height="24" viewBox="0 0 24 24" fill="#000" xmlns="http://www.w3.org/2000/svg">
<path fill-rule="evenodd" clip-rule="evenodd" d="M22.9928 1.00718C23.3833 1.3977 23.3833 2.03087 22.9928 2.42139L2.42139 22.9928C2.03087 23.3833 1.3977 23.3833 1.00718 22.9928C0.616656 22.6023 0.616656 21.9691 1.00718 21.5786L21.5786 1.00718C21.9691 0.616656 22.6023 0.616656 22.9928 1.00718Z" />
<path fill-rule="evenodd" clip-rule="evenodd" d="M1.00718 1.00718C1.3977 0.616656 2.03087 0.616656 2.42139 1.00718L22.9928 21.5786C23.3833 21.9691 23.3833 22.6023 22.9928 22.9928C22.6023 23.3833 21.9691 23.3833 21.5786 22.9928L1.00718 2.42139C0.616656 2.03087 0.616656 1.3977 1.00718 1.00718Z" />
</svg>
