<svg width="23" height="24" viewBox="0 0 23 24" fill="#000" xmlns="http://www.w3.org/2000/svg">
    <path fill-rule="evenodd" clip-rule="evenodd" d="M14.8121 0.819335C14.9664 0.444588 15.3316 0.2 15.7368 0.2H21.7895C22.3418 0.2 22.7895 0.647715 22.7895 1.2V7.2C22.7895 7.60367 22.5468 7.96775 22.1742 8.12304C21.8016 8.27833 21.3721 8.19437 21.0855 7.91019L18.7632 5.60808L1.91454 22.3102C1.52231 22.699 0.889153 22.6962 0.500338 22.304C0.111522 21.9118 0.114287 21.2786 0.506513 20.8898L17.3427 4.2L15.0328 1.91019C14.745 1.62488 14.6579 1.19408 14.8121 0.819335ZM20.1836 4.2L20.7895 4.80062V3.59938L20.1836 4.2ZM19.3603 2.2L18.7632 2.79192L18.166 2.2H19.3603ZM0.500338 1.69599C0.889153 1.30376 1.52231 1.301 1.91454 1.68981L7.96717 7.68981C8.3594 8.07863 8.36216 8.71179 7.97335 9.10401C7.58453 9.49624 6.95137 9.499 6.55915 9.11019L0.506513 3.11019C0.114287 2.72137 0.111522 2.08821 0.500338 1.69599ZM13.8161 14.896C14.2049 14.5038 14.8381 14.501 15.2303 14.8898L18.7632 18.3919L21.0855 16.0898C21.3721 15.8056 21.8016 15.7217 22.1742 15.877C22.5468 16.0322 22.7895 16.3963 22.7895 16.8V22.8C22.7895 23.3523 22.3418 23.8 21.7895 23.8H15.7368C15.3316 23.8 14.9664 23.5554 14.8121 23.1807C14.6579 22.8059 14.745 22.3751 15.0328 22.0898L17.3427 19.8L13.8223 16.3102C13.4301 15.9214 13.4273 15.2882 13.8161 14.896ZM18.7632 21.2081L18.166 21.8H19.3603L18.7632 21.2081ZM20.7895 20.4006L20.1836 19.8L20.7895 19.1994V20.4006Z" />
</svg>
